<?xml version="1.0" encoding="UTF-8"?>
<svg version="1.1" xmlns="http://www.w3.org/2000/svg" width="600" height="600">
<path d="M0 0 C198 0 396 0 600 0 C600 198 600 396 600 600 C402 600 204 600 0 600 C0 402 0 204 0 0 Z " fill="#010101" transform="translate(0,0)"/>
<path d="M0 0 C8.20223156 0.29807169 8.20223156 0.29807169 11.48242188 2.44091797 C14.7890587 6.17367359 16.4845886 10.81821101 18.33544922 15.39257812 C20.69352084 20.76061468 23.8278826 25.71247328 26.81298828 30.74951172 C28.11265705 32.99920212 29.40951787 35.25051697 30.70361328 37.50341797 C34.30238567 43.74363165 37.9278751 49.96791484 41.56298828 56.18701172 C47.14818495 65.74238933 52.69045003 75.3218652 58.20581055 84.91772461 C61.01467984 89.79859486 63.83669423 94.6686939 66.73095703 99.49951172 C67.2037207 100.29043213 67.67648438 101.08135254 68.16357422 101.89624023 C69.02688242 103.33513979 69.8956484 104.7707853 70.77099609 106.20239258 C73.56298828 110.85711812 73.56298828 110.85711812 73.56298828 114.18701172 C74.22298828 114.18701172 74.88298828 114.18701172 75.56298828 114.18701172 C75.84352051 113.45232666 76.12405273 112.7176416 76.41308594 111.96069336 C77.45585739 109.44542235 78.6102669 107.16779111 79.96142578 104.80810547 C80.43499512 103.97907715 80.90856445 103.15004883 81.39648438 102.29589844 C82.15952881 100.97356201 82.15952881 100.97356201 82.93798828 99.62451172 C83.46602051 98.70428223 83.99405273 97.78405273 84.53808594 96.8359375 C88.72521033 89.56825932 93.01260706 82.36303183 97.37695312 75.20043945 C100.40725025 70.20590394 103.24473731 65.13404026 106.02246094 59.99511719 C108.60247503 55.29221353 111.33938806 50.68273231 114.06298828 46.06201172 C119.8083461 36.27950094 125.39469845 26.41762312 130.85595703 16.47363281 C131.92316622 14.54563849 133.00729614 12.62687389 134.11132812 10.71972656 C135.00800241 9.15529686 135.86224048 7.56457256 136.64355469 5.93945312 C137.79077835 3.83647493 138.61468027 2.59024197 140.56298828 1.18701172 C144.68072825 0.32449917 148.6279206 0.48070557 152.81298828 0.68701172 C153.92673828 0.71021484 155.04048828 0.73341797 156.18798828 0.75732422 C164.35234448 0.97636792 164.35234448 0.97636792 165.56298828 2.18701172 C165.6601077 4.49057605 165.68485399 6.7971883 165.6832428 9.10279846 C165.68452444 10.20051391 165.68452444 10.20051391 165.68583196 11.32040542 C165.68748894 13.79102051 165.68196187 16.26156882 165.67651367 18.73217773 C165.67623182 20.49584959 165.67638949 22.25952157 165.67695618 24.02319336 C165.67724423 28.82671014 165.67134621 33.63020219 165.66438222 38.4337132 C165.65815002 43.44790857 165.65754499 48.46210445 165.65635681 53.4763031 C165.6532431 62.97837932 165.64502918 72.4804441 165.63500732 81.98251528 C165.62384742 92.79732511 165.61833605 103.61213547 165.61331189 114.42694962 C165.60284659 136.68031022 165.58504601 158.93365985 165.56298828 181.18701172 C158.30298828 181.18701172 151.04298828 181.18701172 143.56298828 181.18701172 C143.23298828 134.98701172 142.90298828 88.78701172 142.56298828 41.18701172 C137.28298828 50.42701172 132.00298828 59.66701172 126.56298828 69.18701172 C123.80736403 73.86489682 121.04723804 78.53448193 118.25048828 83.18701172 C113.03755768 91.91197326 107.9674929 100.68962802 103.18676758 109.65966797 C100.66544086 114.35281016 97.89464291 118.77057352 94.90185547 123.17773438 C93.36390841 125.48577673 92.02936417 127.85169811 90.75048828 130.31201172 C88.2357164 135.02137232 85.5644084 139.61360858 82.81298828 144.18701172 C82.22940552 145.15791748 82.22940552 145.15791748 81.6340332 146.1484375 C79.99291494 148.86583401 78.32419887 151.54519584 76.56298828 154.18701172 C74.7043457 153.89257812 74.7043457 153.89257812 72.56298828 153.18701172 C70.82936688 150.66592499 69.34133253 148.23222062 67.87548828 145.56201172 C66.97777069 143.98087359 66.07932147 142.40015066 65.18017578 140.81982422 C64.73512695 140.02866211 64.29007812 139.2375 63.83154297 138.42236328 C62.11110228 135.39073223 60.31051882 132.41616703 58.50048828 129.43701172 C53.93693409 121.87044739 49.47080893 114.24635206 45.00048828 106.62451172 C44.46438431 105.71131165 44.46438431 105.71131165 43.91744995 104.77966309 C39.66178821 97.5286162 35.44995296 90.25485413 31.28863525 82.94924927 C28.9965947 78.93073755 26.65318285 74.95264247 24.25048828 70.99951172 C20.10236973 64.14617941 16.08889485 57.21807576 12.10473633 50.26831055 C11.65783447 49.49124756 11.21093262 48.71418457 10.75048828 47.91357422 C10.35216797 47.21828613 9.95384766 46.52299805 9.54345703 45.80664062 C8.66405122 44.20850305 8.66405122 44.20850305 7.56298828 43.18701172 C7.23298828 88.72701172 6.90298828 134.26701172 6.56298828 181.18701172 C-1.02701172 181.18701172 -8.61701172 181.18701172 -16.43701172 181.18701172 C-16.46012814 157.86558269 -16.47798962 134.5441564 -16.48882389 111.22271824 C-16.4939874 100.39497552 -16.50103114 89.56724003 -16.51245117 78.73950195 C-16.52239634 69.30566765 -16.52886475 59.87183859 -16.53110021 50.43799919 C-16.53240761 45.43959686 -16.53549525 40.44120951 -16.54274178 35.44281197 C-16.54949936 30.74386162 -16.55162922 26.04493252 -16.5501194 21.34597778 C-16.55039585 19.61612266 -16.55240252 17.88626688 -16.55621719 16.15641594 C-16.56115036 13.80518349 -16.56001142 11.45403257 -16.55726624 9.10279846 C-16.55818803 7.7837127 -16.55910982 6.46462694 -16.56005955 5.10556889 C-16.26731901 -1.83790993 -5.40032218 0.09569428 0 0 Z " fill="#F9F9FA" transform="translate(141.43701171875,179.81298828125)"/>
<path d="M0 0 C1.08820541 -0.00744736 1.08820541 -0.00744736 2.19839478 -0.01504517 C4.6159153 -0.02972798 7.03336979 -0.03648567 9.45092773 -0.04199219 C11.13752748 -0.04774712 12.82412721 -0.05350481 14.51072693 -0.05926514 C18.06265569 -0.06979819 21.61456171 -0.07562295 25.16650391 -0.07910156 C29.6748286 -0.08453279 34.18284299 -0.10843351 38.69107151 -0.13707352 C42.18569236 -0.15590564 45.68024234 -0.1609167 49.17490959 -0.16243744 C50.83356322 -0.16542821 52.4922167 -0.17333261 54.15081978 -0.18662262 C69.59758316 -0.3013593 84.01006901 1.16178016 98.07202148 8.16113281 C98.79776367 8.50660156 99.52350586 8.85207031 100.27124023 9.20800781 C108.6647324 13.75929237 114.73612072 22.24151434 118.41577148 30.89550781 C121.79873537 42.5747879 121.83302296 57.33906462 116.07202148 68.16113281 C111.25803489 76.39904908 103.77096794 82.36928436 95.07202148 86.16113281 C98.75313402 88.43536375 102.52238369 90.40137532 106.38452148 92.34863281 C112.31158495 95.50075293 116.7096899 99.08712176 121.07202148 104.16113281 C119.54862845 108.14883812 117.12059798 109.90256542 113.69702148 112.34863281 C112.74053711 113.0434375 111.78405273 113.73824219 110.79858398 114.45410156 C108.4274188 115.93862762 106.79730085 116.72844628 104.07202148 117.16113281 C103.65952148 116.56945312 103.24702148 115.97777344 102.82202148 115.36816406 C96.0293208 106.07368745 88.1497992 101.42030881 76.75952148 99.64477539 C70.72836454 98.91570543 64.67091845 98.92725076 58.60327148 98.84472656 C57.47115234 98.82607544 56.3390332 98.80742432 55.17260742 98.78820801 C50.97248607 98.72027811 46.77224537 98.65989562 42.57202148 98.59863281 C33.16702148 98.45425781 23.76202148 98.30988281 14.07202148 98.16113281 C14.07202148 118.95113281 14.07202148 139.74113281 14.07202148 161.16113281 C16.71202148 161.16113281 19.35202148 161.16113281 22.07202148 161.16113281 C20.55392466 164.19732646 18.24491447 164.50589131 15.13842773 165.76269531 C13.93250977 166.25253906 12.7265918 166.74238281 11.48413086 167.24707031 C10.85273193 167.4994043 10.22133301 167.75173828 9.57080078 168.01171875 C7.64279705 168.78282301 5.71949596 169.5648148 3.79663086 170.34863281 C-5.64888832 174.16113281 -5.64888832 174.16113281 -7.92797852 174.16113281 C-7.95130513 151.62200705 -7.96895652 129.08288327 -7.97979069 106.5437479 C-7.98495415 96.07921 -7.9919978 85.61467958 -8.00341797 75.15014648 C-8.01336327 66.03273846 -8.01983158 56.91533585 -8.02206701 47.79792255 C-8.02337438 42.96719405 -8.02646188 38.13648107 -8.03370857 33.30575752 C-8.04046637 28.76439594 -8.04259597 24.22305635 -8.0410862 19.68169022 C-8.04136263 18.00988712 -8.04336918 16.33808333 -8.04718399 14.66628456 C-8.0521175 12.39387428 -8.05097809 10.12154835 -8.04823303 7.84913635 C-8.04915483 6.57429666 -8.05007662 5.29945696 -8.05102634 3.98598576 C-7.81771113 -1.37031484 -4.70497944 0.02438531 0 0 Z " fill="#FBFBFB" transform="translate(347.927978515625,180.8388671875)"/>
<path d="M0 0 C0.73444336 0.15484863 1.46888672 0.30969727 2.22558594 0.46923828 C16.16678659 3.56537802 30.1981533 10.4389136 38.65625 22.328125 C43.95785793 31.39017576 45.98967271 41.60814084 43.53125 51.97705078 C39.33445838 66.08255025 31.68182021 79.00023567 22 90 C21.5776709 90.48259277 21.1553418 90.96518555 20.72021484 91.46240234 C7.88618163 106.03212949 -6.33203819 118.56546283 -22 130 C-22.68288086 130.50241211 -23.36576172 131.00482422 -24.06933594 131.52246094 C-40.55071007 143.60251437 -57.98057336 154.08722078 -75.91503906 163.85009766 C-77.91418047 164.95266862 -79.89311295 166.08372652 -81.8671875 167.23046875 C-102.67174448 179.29108149 -124.87686967 188.66099002 -147 198 C-148.05380859 198.44730469 -149.10761719 198.89460937 -150.19335938 199.35546875 C-167.74493724 206.75879491 -185.7245023 212.74061026 -203.82373047 218.63330078 C-207.25840209 219.75341749 -210.68483043 220.89664194 -214.10913086 222.04801941 C-219.91465826 223.99902808 -225.71461988 225.89292593 -231.625 227.5 C-232.36387451 227.70302734 -233.10274902 227.90605469 -233.86401367 228.11523438 C-241.4331654 230.16585379 -249.05666073 231.97887886 -256.6953125 233.75 C-260.07896307 234.53660965 -263.44514569 235.36627342 -266.8046875 236.25 C-295.33769435 243.63922102 -328.55503278 249.46952701 -358 248 C-358.37125 249.13695312 -358.37125 249.13695312 -358.75 250.296875 C-360.13747728 253.29729462 -361.32161573 254.37906981 -364 256.25 C-364.70125 256.75015625 -365.4025 257.2503125 -366.125 257.765625 C-370.82893435 260.86238178 -375.50380124 260.63166353 -381 260 C-386.14343737 258.2435122 -389.35436249 256.14040381 -392.05859375 251.4453125 C-393.69466218 249.06764708 -394.61245717 248.13888424 -397.35644531 247.15551758 C-400.29661615 246.61735665 -403.21507054 246.25147432 -406.1875 245.9375 C-420.09415053 244.05094296 -434.18880789 241.00509071 -446 233 C-446.69222656 232.53851563 -447.38445312 232.07703125 -448.09765625 231.6015625 C-456.94180224 225.35280141 -463.37822931 217.14999836 -465.67578125 206.37890625 C-468.16966607 188.08040199 -460.43122619 173.09993916 -449.984375 158.5390625 C-446.98844529 154.70568788 -443.72301107 151.15027693 -440.40625 147.59375 C-438.37054341 145.39941692 -436.42612606 143.16454607 -434.5 140.875 C-424.36697379 129.28432269 -411.32541576 120.12080766 -399 111 C-398.34 111.33 -397.68 111.66 -397 112 C-398.95290528 113.83943372 -400.91181918 115.67159131 -402.875 117.5 C-403.43058594 118.02464844 -403.98617187 118.54929687 -404.55859375 119.08984375 C-408.7734375 123 -408.7734375 123 -411 123 C-411.26103516 123.58990723 -411.52207031 124.17981445 -411.79101562 124.78759766 C-413.07321994 127.13399012 -414.40119423 128.57296009 -416.34375 130.3984375 C-417.00826172 131.03531494 -417.67277344 131.67219238 -418.35742188 132.32836914 C-419.06447266 133.00375732 -419.77152344 133.67914551 -420.5 134.375 C-429.93329191 143.62210852 -437.16649517 153.30651186 -443.5 164.875 C-443.82677734 165.46933838 -444.15355469 166.06367676 -444.49023438 166.67602539 C-449.4199594 176.11371592 -450.87363363 187.28107821 -448.34765625 197.6875 C-443.9750333 208.49707433 -434.77188305 215.50070258 -424.60546875 220.4765625 C-414.94651917 224.5578088 -402.52784659 229.24906654 -392 228 C-389.73002998 226.62650365 -387.7386657 225.10502081 -385.69921875 223.41015625 C-382.52839195 220.77873447 -380.24225981 220.83749852 -376.1875 220.8125 C-375.14980469 220.79832031 -374.11210937 220.78414062 -373.04296875 220.76953125 C-368.23074365 221.13400016 -365.03425829 222.5408183 -361.6875 226 C-361.17574219 226.515625 -360.66398437 227.03125 -360.13671875 227.5625 C-359 229 -359 229 -359 231 C-333.52889969 228.82113777 -308.00916799 226.49055316 -283 221 C-281.47442779 220.69426266 -279.9483305 220.3911401 -278.421875 220.08984375 C-263.20069727 217.05902145 -248.00749966 213.85530359 -233.17578125 209.2578125 C-230.19084695 208.3374995 -227.19415097 207.51611978 -224.16796875 206.7421875 C-207.73835095 202.52210341 -191.89979403 196.85770463 -176 191 C-174.99485352 190.63084473 -173.98970703 190.26168945 -172.95410156 189.88134766 C-145.43048031 179.7244007 -118.24059864 168.32461865 -92.44238281 154.31835938 C-89.90581638 152.94916118 -87.3564482 151.60626845 -84.8046875 150.265625 C-64.48958456 139.50580348 -45.03507772 127.27344886 -27 113 C-26.33709961 112.48373047 -25.67419922 111.96746094 -24.99121094 111.43554688 C-8.14284431 98.29845002 6.79249073 84.15376417 17 65.1875 C17.56122559 64.14770996 17.56122559 64.14770996 18.13378906 63.08691406 C23.18541523 53.28797656 24.84777064 42.32762383 22.4296875 31.4296875 C18.71860902 21.1558597 11.40848659 14.8614197 1.6875 10.25 C-16.49145366 2.68389918 -35.13838838 0.65797749 -54.625 -0.1875 C-56.32556762 -0.26921432 -58.02608919 -0.35189298 -59.7265625 -0.43554688 C-63.81726643 -0.6347465 -67.90835844 -0.8211392 -72 -1 C-72 -1.33 -72 -1.66 -72 -2 C-48.79267255 -7.01210883 -22.99813943 -4.86052029 0 0 Z " fill="#6759CF" transform="translate(506,176)"/>
<path d="M0 0 C8.8275 -0.061875 17.655 -0.12375 26.75 -0.1875 C29.51213867 -0.21481201 32.27427734 -0.24212402 35.12011719 -0.27026367 C37.3456987 -0.27903763 39.57128508 -0.2866794 41.796875 -0.29296875 C42.92303223 -0.30831665 44.04918945 -0.32366455 45.20947266 -0.33947754 C56.4263609 -0.34312412 67.43190361 1.19539734 76 9 C82.39568793 16.4272505 84.27539868 23.35963171 83.875 33 C83.07123087 41.74799886 80.25283656 47.74716344 74 54 C64.37967778 60.61537309 52.31078942 61.44991469 41.015625 61.29296875 C39.96616699 61.28994751 38.91670898 61.28692627 37.83544922 61.28381348 C33.97353052 61.26830208 30.11175373 61.22642064 26.25 61.1875 C17.5875 61.125625 8.925 61.06375 0 61 C0 40.87 0 20.74 0 0 Z " fill="#050505" transform="translate(362,200)"/>
<path d="M0 0 C0.99 0.495 0.99 0.495 2 1 C0.04709472 2.83943372 -1.91181918 4.67159131 -3.875 6.5 C-4.43058594 7.02464844 -4.98617187 7.54929687 -5.55859375 8.08984375 C-9.7734375 12 -9.7734375 12 -12 12 C-12.26103516 12.58990723 -12.52207031 13.17981445 -12.79101562 13.78759766 C-14.07321994 16.13399012 -15.40119423 17.57296009 -17.34375 19.3984375 C-18.00826172 20.03531494 -18.67277344 20.67219238 -19.35742188 21.32836914 C-20.06447266 22.00375732 -20.77152344 22.67914551 -21.5 23.375 C-30.93329191 32.62210852 -38.16649517 42.30651186 -44.5 53.875 C-44.82677734 54.46933838 -45.15355469 55.06367676 -45.49023438 55.67602539 C-50.4199594 65.11371592 -51.87363363 76.28107821 -49.34765625 86.6875 C-44.9750333 97.49707433 -35.77188305 104.50070258 -25.60546875 109.4765625 C-15.94651917 113.5578088 -3.52784659 118.24906654 7 117 C9.26997002 115.62650365 11.2613343 114.10502081 13.30078125 112.41015625 C17.18945361 109.18300516 21.19576779 109.61531897 26.07421875 109.64453125 C29 110 29 110 32.125 112.3125 C35.41954199 117.03467686 36.21887886 119.19971024 36 125 C36.99 125 37.98 125 39 125 C39.33 124.34 39.66 123.68 40 123 C40.89377301 128.27326077 41.19739453 131.05586231 39 136 C39.309375 136.99 39.309375 136.99 39.625 138 C40 140 40 140 38.5 142.5 C33.84217303 147.15782697 30.16921955 149.23300083 23.625 149.5625 C17.91059444 149.32701625 13.36003339 147.74304753 9 144 C8.31066502 142.81692646 7.62480254 141.6318264 6.94140625 140.4453125 C5.30533782 138.06764708 4.38754283 137.13888424 1.64355469 136.15551758 C-1.29661615 135.61735665 -4.21507054 135.25147432 -7.1875 134.9375 C-21.09415053 133.05094296 -35.18880789 130.00509071 -47 122 C-47.69222656 121.53851563 -48.38445313 121.07703125 -49.09765625 120.6015625 C-57.94180224 114.35280141 -64.37822931 106.14999836 -66.67578125 95.37890625 C-69.16966607 77.08040199 -61.43122619 62.09993916 -50.984375 47.5390625 C-47.98844529 43.70568788 -44.72301107 40.15027693 -41.40625 36.59375 C-39.37054341 34.39941692 -37.42612606 32.16454607 -35.5 29.875 C-25.36697379 18.28432269 -12.32541576 9.12080766 0 0 Z " fill="#458ADE" transform="translate(107,287)"/>
<path d="M0 0 C3.2917472 2.43589292 4.7476827 4.62152405 7 8 C7.07905064 10.33199388 7.08798769 12.66832622 7 15 C7.99 15 8.98 15 10 15 C10.33 14.34 10.66 13.68 11 13 C11.89377301 18.27326077 12.19739453 21.05586231 10 26 C10.20625 26.66 10.4125 27.32 10.625 28 C11 30 11 30 9.5 32.5 C4.84217303 37.15782697 1.16921955 39.23300083 -5.375 39.5625 C-11.15323129 39.32438607 -15.52498737 37.67884474 -20 34 C-21.31640625 32.1796875 -21.31640625 32.1796875 -22.4375 30.3125 C-23.97749701 27.80044814 -24.69063651 27.10918711 -27.5234375 26.109375 C-30.01782631 25.62027916 -32.47035163 25.24068499 -35 25 C-35 24.67 -35 24.34 -35 24 C-31.535 23.505 -31.535 23.505 -28 23 C-27.86722656 22.24074219 -27.73445313 21.48148437 -27.59765625 20.69921875 C-27.42105469 19.70535156 -27.24445313 18.71148437 -27.0625 17.6875 C-26.88847656 16.70136719 -26.71445313 15.71523438 -26.53515625 14.69921875 C-26 12 -26 12 -25 9 C-25.99 8.67 -26.98 8.34 -28 8 C-27.030625 7.79375 -26.06125 7.5875 -25.0625 7.375 C-21.71127934 6.46346798 -19.54706162 4.9907922 -16.8125 2.875 C-11.48589186 -0.84357549 -6.31508137 -1.25196948 0 0 Z " fill="#9392FC" transform="translate(136,397)"/>
<path d="M0 0 C-0.74089994 11.66917407 -5.25934087 21.05394625 -14 29 C-27.1500264 40.52543106 -42.28057877 42.34223956 -59.125 42.125 C-60.47655581 42.11494282 -61.82811893 42.10582184 -63.1796875 42.09765625 C-66.45331558 42.07427319 -69.72655994 42.04150061 -73 42 C-70.23825114 39.82515235 -67.48881623 38.11934148 -64.3515625 36.5390625 C-63.43963135 36.07419434 -62.5277002 35.60932617 -61.58813477 35.13037109 C-60.61030029 34.63359863 -59.63246582 34.13682617 -58.625 33.625 C-40.11889836 24.09417442 -21.84607143 13.53989702 -4.6875 1.72265625 C-2 0 -2 0 0 0 Z " fill="#F8F8F9" transform="translate(480,319)"/>
<path d="M0 0 C0.66 0.66 1.32 1.32 2 2 C3.98356483 2.71408334 5.98315437 3.38617742 8 4 C8 4.66 8 5.32 8 6 C9.65 6 11.3 6 13 6 C13.495 7.485 13.495 7.485 14 9 C14.99 9.66 15.98 10.32 17 11 C17.495 12.485 17.495 12.485 18 14 C18.66 14.33 19.32 14.66 20 15 C20 15.66 20 16.32 20 17 C25.28 17.33 30.56 17.66 36 18 C36 18.33 36 18.66 36 19 C32.33817506 19.41849428 28.67499877 19.721591 25 20 C23.21722656 20.17208984 23.21722656 20.17208984 21.3984375 20.34765625 C12.17327538 20.89089385 12.17327538 20.89089385 8.6953125 18.25 C6.875 16.0625 6.875 16.0625 5.4296875 13.84765625 C4.16145532 11.88524609 4.16145532 11.88524609 2.17578125 11.2734375 C-6.39892162 10.19582673 -12.29615671 10.20950322 -19.35546875 15.58984375 C-20.2608681 16.36620756 -21.15664695 17.15664695 -22 18 C-26.16464926 18.16017882 -29.94726192 17.98248196 -34 17 C-32.82942057 15.82942057 -31.65699201 14.66064577 -30.4765625 13.5 C-29.50178168 12.50974647 -28.55748391 11.4884207 -27.6484375 10.4375 C-24.16729628 6.54795673 -21.09666205 5.0558265 -16.08984375 3.65625 C-13.82297882 3.05364252 -13.82297882 3.05364252 -11.5 1.3125 C-7.83122288 -0.61360799 -4.07263523 -0.6160961 0 0 Z " fill="#060630" transform="translate(136,387)"/>
<path d="M0 0 C3.33693699 2.64174178 5.69836935 4.87713114 6.30859375 9.171875 C6.64251762 15.8503524 6.64251762 15.8503524 4.90625 18.95703125 C2.30164293 21.80408845 0.1864845 22.93672847 -3.5 24.1875 C-7.25433442 23.98637494 -9.00147561 23.20512649 -11.7109375 20.58984375 C-14.59939843 17.02740861 -15.80959979 13.36000151 -16.4375 8.875 C-15.8804989 5.21470708 -14.59538554 3.59538554 -12 1 C-7.94586996 -0.35137668 -4.23418885 -0.68341294 0 0 Z " fill="#B4B3FC" transform="translate(135,405)"/>
<path d="M0 0 C3.2917472 2.43589292 4.7476827 4.62152405 7 8 C6.67 8.99 6.34 9.98 6 11 C4.5 9.625 4.5 9.625 3 8 C3 7.34 3 6.68 3 6 C0.525 5.505 0.525 5.505 -2 5 C-2.495 3.515 -2.495 3.515 -3 2 C-10.01038443 4.37852329 -18.19037778 7.19710318 -22 14 C-22.22122872 17.14977529 -22.22122872 17.14977529 -21.8125 20.5 C-21.71582031 21.6240625 -21.61914062 22.748125 -21.51953125 23.90625 C-20.86563256 27.80014296 -20.25300162 30.0121564 -17.1171875 32.484375 C-13.06449595 34.77195699 -9.06515363 37.02676267 -4.26171875 36.7734375 C1.14894828 34.92315758 5.6676286 30.63919197 10 27 C10.495 28.485 10.495 28.485 11 30 C8.32883002 34.34065122 4.81322134 37.32738334 0 39 C-6.82565913 40.11523629 -12.20974428 39.20000353 -18.08984375 35.5703125 C-20.06251913 33.9486039 -21.13094451 32.488575 -22.4375 30.3125 C-23.97749701 27.80044814 -24.69063651 27.10918711 -27.5234375 26.109375 C-30.01782631 25.62027916 -32.47035163 25.24068499 -35 25 C-35 24.67 -35 24.34 -35 24 C-31.535 23.505 -31.535 23.505 -28 23 C-27.86722656 22.24074219 -27.73445313 21.48148437 -27.59765625 20.69921875 C-27.42105469 19.70535156 -27.24445313 18.71148437 -27.0625 17.6875 C-26.88847656 16.70136719 -26.71445313 15.71523438 -26.53515625 14.69921875 C-26 12 -26 12 -25 9 C-25.99 8.67 -26.98 8.34 -28 8 C-27.030625 7.79375 -26.06125 7.5875 -25.0625 7.375 C-21.71127934 6.46346798 -19.54706162 4.9907922 -16.8125 2.875 C-11.48589186 -0.84357549 -6.31508137 -1.25196948 0 0 Z " fill="#7D7AF9" transform="translate(136,397)"/>
<path d="M0 0 C7.75896764 0.03380814 7.75896764 0.03380814 10.7109375 2.33203125 C14 6.23898121 14 6.23898121 14 9 C15.11375 9.433125 15.11375 9.433125 16.25 9.875 C19 11 19 11 20.84765625 12.0390625 C25.08275662 13.92986956 29.48384805 13.70088728 34 13 C38.60189097 10.94325052 42.13549304 8.59069281 44.5625 4.125 C45.036875 3.42375 45.51125 2.7225 46 2 C48.78954251 1.55748221 51.15219607 1.76657345 54 2 C53.34 2.33 52.68 2.66 52 3 C51.896875 3.5775 51.79375 4.155 51.6875 4.75 C50.67542995 8.06222926 48.50710813 9.66780639 46 12 C45.38125 12.721875 44.7625 13.44375 44.125 14.1875 C38.8334029 18.70092106 31.86627717 18.50425399 25.2109375 18.3671875 C16.02603856 17.31684626 9.86765216 10.66659587 4 4 C3.67 3.34 3.34 2.68 3 2 C2.01 1.34 1.02 0.68 0 0 Z " fill="#0B0969" transform="translate(102,422)"/>
<path d="M0 0 C2.22265625 1.01953125 2.22265625 1.01953125 4 2 C4.28783019 5.051 4.41473429 7.95681985 4 11 C2 13.125 2 13.125 -1 14 C-3.87348993 14.01620389 -6.14589917 13.61838851 -9 13 C-10.59492803 9.81014393 -10.37616681 6.47067113 -10 3 C-7.82503557 -1.09405069 -4.20319215 -0.36870107 0 0 Z " fill="#DCDAFD" transform="translate(133,409)"/>
<path d="M0 0 C-4.41374734 9.52440216 -12.90639799 16.39798005 -22.68359375 19.984375 C-28.45420706 21.42483251 -31.84079152 20.91607436 -37 18 C-36.67 17.34 -36.34 16.68 -36 16 C-33.33984375 15.69140625 -33.33984375 15.69140625 -29.9375 15.5625 C-22.13406762 15.06677264 -15.73397515 13.73397515 -10 8 C-8.560139 5.71729354 -7.29663686 3.36971564 -6 1 C-4 0 -4 0 0 0 Z " fill="#070732" transform="translate(160,424)"/>
<path d="M0 0 C0.928125 0.7734375 0.928125 0.7734375 1.875 1.5625 C1.875 2.2225 1.875 2.8825 1.875 3.5625 C2.803125 4.0265625 2.803125 4.0265625 3.75 4.5 C5.125 5.1875 6.5 5.875 7.875 6.5625 C7.875 7.2225 7.875 7.8825 7.875 8.5625 C10.185 8.5625 12.495 8.5625 14.875 8.5625 C14.875 8.8925 14.875 9.2225 14.875 9.5625 C2.53220992 10.79506711 2.53220992 10.79506711 -1.47265625 7.81640625 C-3.25 5.625 -3.25 5.625 -4.6953125 3.41015625 C-5.96354468 1.44774609 -5.96354468 1.44774609 -7.94921875 0.8359375 C-16.52392162 -0.24167327 -22.42115671 -0.22799678 -29.48046875 5.15234375 C-30.3858681 5.92870756 -31.28164695 6.71914695 -32.125 7.5625 C-34.45797433 7.60342937 -36.79205225 7.60491723 -39.125 7.5625 C-39.125 7.2325 -39.125 6.9025 -39.125 6.5625 C-38.3 6.35625 -37.475 6.15 -36.625 5.9375 C-32.79038272 4.43104321 -30.13816586 2.46858449 -26.95703125 -0.09765625 C-20.46404499 -4.84625814 -6.91730285 -3.18195931 0 0 Z " fill="#130E8D" transform="translate(146.125,397.4375)"/>
<path d="M0 0 C0.66 0.33 1.32 0.66 2 1 C0.04709472 2.83943372 -1.91181918 4.67159131 -3.875 6.5 C-4.43058594 7.02464844 -4.98617187 7.54929687 -5.55859375 8.08984375 C-9.7734375 12 -9.7734375 12 -12 12 C-12.27021973 12.59256592 -12.54043945 13.18513184 -12.81884766 13.7956543 C-14.7288223 17.36017704 -17.54785928 19.95733696 -20.375 22.8125 C-21.24125 23.72805664 -21.24125 23.72805664 -22.125 24.66210938 C-22.68960938 25.23380859 -23.25421875 25.80550781 -23.8359375 26.39453125 C-24.34688965 26.91893799 -24.8578418 27.44334473 -25.38427734 27.98364258 C-27 29 -27 29 -29.08837891 28.57299805 C-29.71921387 28.38390869 -30.35004883 28.19481934 -31 28 C-32.77190909 29.35444301 -32.77190909 29.35444301 -34 31 C-34.66 30.67 -35.32 30.34 -36 30 C-27.04230999 21.40160876 -18.00481588 13.36203433 -8 6 C-6.3950771 4.79267129 -4.79078848 3.58449832 -3.1875 2.375 C-2.135625 1.59125 -1.08375 0.8075 0 0 Z " fill="#5887C0" transform="translate(107,287)"/>
<path d="M0 0 C0 0.33 0 0.66 0 1 C-1.2065625 1.185625 -1.2065625 1.185625 -2.4375 1.375 C-3.283125 1.58125 -4.12875 1.7875 -5 2 C-5.33 2.66 -5.66 3.32 -6 4 C-5.34 4.33 -4.68 4.66 -4 5 C-18.19 4.34 -32.38 3.68 -47 3 C-47 2.67 -47 2.34 -47 2 C-31.72505417 -1.29894474 -15.52106672 -0.10489388 0 0 Z " fill="#7E48AA" transform="translate(481,172)"/>
<path d="M0 0 C0 0.33 0 0.66 0 1 C-0.68707031 1.09796875 -1.37414062 1.1959375 -2.08203125 1.296875 C-2.98308594 1.44640625 -3.88414062 1.5959375 -4.8125 1.75 C-5.70582031 1.88921875 -6.59914063 2.0284375 -7.51953125 2.171875 C-10.55144266 3.18410369 -11.42603514 4.26089232 -13 7 C-13.86615105 12.44437804 -11.87743475 16.50524848 -9 21 C-6.46466552 23.70435678 -5.49019313 23.97171963 -1.75 24.1875 C-0.8425 24.125625 0.065 24.06375 1 24 C0.67 24.66 0.34 25.32 0 26 C-4.65828105 25.88613091 -8.73410866 25.67690791 -12.5625 22.8125 C-15 20 -15 20 -15.375 16.6875 C-15.25125 15.800625 -15.1275 14.91375 -15 14 C-15.66 14 -16.32 14 -17 14 C-18.13468246 10.69236356 -17.95742465 9.01021712 -16.4375 5.875 C-14.86363637 2.98510705 -14.22106439 2.12058057 -11.25 0.5 C-7.40855226 -0.09099196 -3.88407054 -0.13393347 0 0 Z " fill="#A5A4FD" transform="translate(133,404)"/>
<path d="M0 0 C3.4375 1.4375 3.4375 1.4375 6 4 C6.88729496 7.19187985 6.82445366 9.79884545 6 13 C3.11479187 16.89892991 3.11479187 16.89892991 0 18 C-3.75469897 18.0978591 -7.30885162 17.66335585 -11 17 C-12.73945331 6.20161163 -12.73945331 6.20161163 -10 1.75 C-6.23350444 -0.44712241 -4.30144073 -0.67917485 0 0 Z M-8.9375 3 C-10.69871949 6.31523669 -10.23609941 9.28143437 -10 13 C-9.67 13.66 -9.34 14.32 -9 15 C-4.78721507 15.91277007 -2.13550651 16.3311894 2 15.125 C4.40581285 12.56882384 4.29638534 11.72343696 4.3125 8.3125 C4.23217143 6.87347107 4.13536774 5.43489809 4 4 C-0.19872387 1.6837809 -4.45893573 0.68848296 -8.9375 3 Z " fill="#C8C6FD" transform="translate(133,407)"/>
<path d="M0 0 C1.32 0.33 2.64 0.66 4 1 C3.34 1 2.68 1 2 1 C1.566875 1.8971875 1.566875 1.8971875 1.125 2.8125 C0 5 0 5 -2 8 C-2.66 8 -3.32 8 -4 8 C-4 8.66 -4 9.32 -4 10 C-10.66177749 14.09955538 -16.2187144 14.94813984 -24 14 C-26.35623737 13.23356591 -27.92374247 12.38417169 -30 11 C-29.67 10.01 -29.34 9.02 -29 8 C-28.236875 8.495 -27.47375 8.99 -26.6875 9.5 C-21.6500853 11.54911784 -17.36521223 11.92017471 -12 11 C-6.67173844 8.60348056 -2.40953842 5.46162042 0 0 Z " fill="#150DA7" transform="translate(148,424)"/>
<path d="M0 0 C1.794375 -0.00773437 1.794375 -0.00773437 3.625 -0.015625 C6.85804974 0.23882799 9.09417459 0.86312878 12 2.25 C12 2.58 12 2.91 12 3.25 C10.04707031 3.19779297 10.04707031 3.19779297 8.0546875 3.14453125 C6.32813796 3.11638099 4.60157439 3.08908216 2.875 3.0625 C2.0190625 3.03736328 1.163125 3.01222656 0.28125 2.98632812 C-4.93258558 2.92616848 -8.4926783 3.32782202 -13 6.25 C-13.9075 7.136875 -14.815 8.02375 -15.75 8.9375 C-20.19218789 12.09828753 -23.7190481 11.71964987 -29 11.25 C-29 10.92 -29 10.59 -29 10.25 C-28.35933594 10.17523438 -27.71867187 10.10046875 -27.05859375 10.0234375 C-21.26779846 9.14316757 -17.77826329 7.91402395 -13.66796875 3.6875 C-9.54577032 0.13487934 -5.27068737 -0.02271848 0 0 Z " fill="#0C0B65" transform="translate(131,392.75)"/>
<path d="M0 0 C0.33 0.99 0.66 1.98 1 3 C-1.65964063 7.32191602 -5.18419677 10.37125485 -10 12 C-15.25278425 12.59507066 -19.51951047 12.98699302 -24 10 C-23.27296875 10.03222656 -22.5459375 10.06445312 -21.796875 10.09765625 C-11.98902202 9.98448872 -7.14214696 6.26837366 0 0 Z " fill="#6961F6" transform="translate(146,424)"/>
<path d="M0 0 C0.66 0 1.32 0 2 0 C1.91621094 0.71285156 1.83242187 1.42570312 1.74609375 2.16015625 C0.58495763 12.45623613 0.58495763 12.45623613 4 22 C6.1554584 23.5452303 6.1554584 23.5452303 8.625 24.75 C9.44226563 25.17796875 10.25953125 25.6059375 11.1015625 26.046875 C11.72804688 26.36140625 12.35453125 26.6759375 13 27 C13 27.33 13 27.66 13 28 C8.60157266 27.74126898 6.50477078 27.43893111 3.125 24.5 C2.42375 23.675 1.7225 22.85 1 22 C0.67 21.67 0.34 21.34 0 21 C-0.04080783 19.00041636 -0.04254356 16.99954746 0 15 C-0.66 15 -1.32 15 -2 15 C-2.05429959 13.25034642 -2.09292823 11.50020213 -2.125 9.75 C-2.15980469 8.28820312 -2.15980469 8.28820312 -2.1953125 6.796875 C-1.99862781 3.9803502 -1.44568916 2.39050964 0 0 Z " fill="#8082FC" transform="translate(113,406)"/>
<path d="M0 0 C3.73630086 0.54777277 5.10705613 1.91155485 7.4375 4.8125 C11.74045422 9.93942418 15.90024388 13.16290413 22 16 C22 16.33 22 16.66 22 17 C20.35 17 18.7 17 17 17 C17 16.34 17 15.68 17 15 C15.906875 14.896875 14.81375 14.79375 13.6875 14.6875 C8.96491228 13.80701754 8.96491228 13.80701754 7 11 C3 4.66176471 3 4.66176471 3 2 C2.01 1.67 1.02 1.34 0 1 C0 0.67 0 0.34 0 0 Z " fill="#080638" transform="translate(102,423)"/>
<path d="M0 0 C0.33 0.99 0.66 1.98 1 3 C-0.32 3.33 -1.64 3.66 -3 4 C-3.66 8.95 -4.32 13.9 -5 19 C-4.34 19 -3.68 19 -3 19 C-3 20.65 -3 22.3 -3 24 C-3.66 23.34 -4.32 22.68 -5 22 C-7.42715206 21.32059533 -7.42715206 21.32059533 -10.125 20.875 C-11.03507812 20.70742188 -11.94515625 20.53984375 -12.8828125 20.3671875 C-13.58148438 20.24601562 -14.28015625 20.12484375 -15 20 C-15 19.67 -15 19.34 -15 19 C-11.535 18.505 -11.535 18.505 -8 18 C-7.86722656 17.24074219 -7.73445313 16.48148437 -7.59765625 15.69921875 C-7.42105469 14.70535156 -7.24445313 13.71148437 -7.0625 12.6875 C-6.88847656 11.70136719 -6.71445313 10.71523438 -6.53515625 9.69921875 C-6 7 -6 7 -5 4 C-5.99 3.67 -6.98 3.34 -8 3 C-6.865625 2.690625 -5.73125 2.38125 -4.5625 2.0625 C-1.21224901 1.37075469 -1.21224901 1.37075469 0 0 Z " fill="#6874F9" transform="translate(116,402)"/>
<path d="M0 0 C0 0.99 0 1.98 0 3 C0.33 3.99 0.66 4.98 1 6 C-0.06716072 7.20205464 -1.15438337 8.38632333 -2.25 9.5625 C-3.15492187 10.55443359 -3.15492187 10.55443359 -4.078125 11.56640625 C-4.71234375 12.03949219 -5.3465625 12.51257813 -6 13 C-8.125 12.625 -8.125 12.625 -10 12 C-11.77190909 13.35444301 -11.77190909 13.35444301 -13 15 C-13.66 14.67 -14.32 14.34 -15 14 C-10.05 9.38 -5.1 4.76 0 0 Z " fill="#4986CB" transform="translate(86,303)"/>
<path d="M0 0 C6.51693224 0.77953735 11.50750416 3.92988671 16.265625 8.390625 C16.265625 9.050625 16.265625 9.710625 16.265625 10.390625 C15.605625 10.390625 14.945625 10.390625 14.265625 10.390625 C14.265625 9.730625 14.265625 9.070625 14.265625 8.390625 C13.3065625 8.2359375 13.3065625 8.2359375 12.328125 8.078125 C11.6475 7.85125 10.966875 7.624375 10.265625 7.390625 C9.935625 6.400625 9.605625 5.410625 9.265625 4.390625 C5.19638948 3.4177148 1.38143978 3.25668743 -2.796875 3.265625 C-4.60865234 3.26175781 -4.60865234 3.26175781 -6.45703125 3.2578125 C-9.10174907 3.36498819 -11.22971192 3.60362363 -13.734375 4.390625 C-9.63681737 -0.62192122 -6.14113434 -0.19277103 0 0 Z " fill="#090846" transform="translate(133.734375,390.609375)"/>
<path d="M0 0 C0.78375 0.04125 1.5675 0.0825 2.375 0.125 C3.035 2.105 3.695 4.085 4.375 6.125 C2.375 8.125 2.375 8.125 -1.25 8.25 C-2.36375 8.20875 -3.4775 8.1675 -4.625 8.125 C-4.75 5.25 -4.75 5.25 -4.625 2.125 C-2.625 0.125 -2.625 0.125 0 0 Z " fill="#F2EFFE" transform="translate(130.625,411.875)"/>
<path d="M0 0 C7.75896764 0.03380814 7.75896764 0.03380814 10.7109375 2.33203125 C14 6.23898121 14 6.23898121 14 9 C14.66 9.33 15.32 9.66 16 10 C13.4375 10.5 13.4375 10.5 10 10 C7.96885393 8.12311819 6.31254772 6.12506122 4.61328125 3.9453125 C2.96685891 1.77108713 2.96685891 1.77108713 0 0 Z " fill="#120F86" transform="translate(102,422)"/>
<path d="M0 0 C1.66392986 2.54483391 2.01746843 3.79911303 1.75 6.875 C0.27502265 13.02073897 -0.60191224 16.30657153 -6 20 C-6.66 19.67 -7.32 19.34 -8 19 C-6.71937515 17.2925002 -5.38232443 15.62626404 -4 14 C-3.34 14 -2.68 14 -2 14 C-2 10.04 -2 6.08 -2 2 C-1.34 2 -0.68 2 0 2 C0 1.34 0 0.68 0 0 Z " fill="#8788FB" transform="translate(146,410)"/>
<path d="M0 0 C0.99 0.33 1.98 0.66 3 1 C1.55746343 4.36591866 -0.33264727 6.51047079 -3 9 C-3 8.34 -3 7.68 -3 7 C-4.98 7.99 -6.96 8.98 -9 10 C-7.64077101 5.10677564 -5.27472965 3.54664745 -1 1 C-0.67 0.67 -0.34 0.34 0 0 Z " fill="#4B91D7" transform="translate(76,314)"/>
<path d="M0 0 C1.32 0.33 2.64 0.66 4 1 C3.34 1 2.68 1 2 1 C1.9071875 1.8353125 1.9071875 1.8353125 1.8125 2.6875 C0.65552926 5.98041671 -1.4653602 7.64219554 -4 10 C-4.928125 11.11375 -4.928125 11.11375 -5.875 12.25 C-8.77418306 14.63756252 -11.32289786 14.71714599 -15 15 C-12 13 -12 13 -9.5625 11.6875 C-6.70257859 9.80413712 -5.06498452 7.70584178 -3 5 C-2.34 4.67 -1.68 4.34 -1 4 C-0.34786708 1.97536745 -0.34786708 1.97536745 0 0 Z " fill="#0C0B57" transform="translate(152,424)"/>
<path d="M0 0 C1.9375 0.3125 1.9375 0.3125 4 1 C5.61386527 5.84159581 5.83616487 10.20821813 3.6875 14.8125 C2.22444433 16.70905365 0.77442053 18.3945719 -1 20 C-1.66 19.67 -2.32 19.34 -3 19 C-2.175 18.38125 -1.35 17.7625 -0.5 17.125 C2.11617322 14.5384718 2.38919392 12.57119076 2.4375 8.9375 C2.34535041 5.41955406 1.75660055 3.05465076 0 0 Z " fill="#A4A2FA" transform="translate(138,408)"/>
<path d="M0 0 C-1.41029874 2.82059747 -3.07891581 2.98101714 -6 4 C-6.721875 4.12375 -7.44375 4.2475 -8.1875 4.375 C-10.18202833 4.83908554 -10.18202833 4.83908554 -11.0625 6.875 C-11.5265625 7.926875 -11.5265625 7.926875 -12 9 C-13.625 10.75 -13.625 10.75 -15 12 C-15.66 11.67 -16.32 11.34 -17 11 C-5.78640777 -2.89320388 -5.78640777 -2.89320388 0 0 Z " fill="#040420" transform="translate(122,391)"/>
<path d="M0 0 C2.97 0.495 2.97 0.495 6 1 C6 1.66 6 2.32 6 3 C11.28 3.33 16.56 3.66 22 4 C22 4.33 22 4.66 22 5 C16.06 5 10.12 5 4 5 C4 4.34 4 3.68 4 3 C2.68 2.34 1.36 1.68 0 1 C0 0.67 0 0.34 0 0 Z " fill="#0A0C41" transform="translate(150,401)"/>
<path d="M0 0 C1.65 0 3.3 0 5 0 C5.33 0.99 5.66 1.98 6 3 C11.43593582 6.81984679 17.58377288 6.69891491 24 7 C24 7.33 24 7.66 24 8 C15.52930383 8.58915197 8.81373099 8.53518193 2 3 C1.34 2.01 0.68 1.02 0 0 Z " fill="#09085C" transform="translate(113,432)"/>
<path d="M0 0 C0.33 0.99 0.66 1.98 1 3 C-0.5 5.625 -0.5 5.625 -3 8 C-6.75 8.8125 -6.75 8.8125 -10 9 C-6.83047153 5.73991357 -3.60062011 2.77762123 0 0 Z " fill="#7673F7" transform="translate(146,424)"/>
<path d="M0 0 C1.32 0 2.64 0 4 0 C7 3.21428571 7 3.21428571 7 6 C10.96 6 14.92 6 19 6 C19 6.33 19 6.66 19 7 C6.40717489 8.0735426 6.40717489 8.0735426 2.95703125 5.44140625 C1.625 3.5 1.625 3.5 0 0 Z " fill="#2924B1" transform="translate(142,400)"/>
<path d="M0 0 C0.54527344 0.27714844 1.09054688 0.55429687 1.65234375 0.83984375 C7.21722476 3.51288916 11.84095196 4.60894933 18 5 C18 5.33 18 5.66 18 6 C5.33029613 6.55353075 5.33029613 6.55353075 0 3 C0 2.01 0 1.02 0 0 Z " fill="#110B94" transform="translate(118,432)"/>
<path d="M0 0 C0 4.16751495 -2.23872302 6.14170518 -5 9 C-6.63072616 10.37705764 -8.2866438 11.72722111 -10 13 C-10.66 12.67 -11.32 12.34 -12 12 C-8.04 8.04 -4.08 4.08 0 0 Z " fill="#714DB6" transform="translate(506,265)"/>
<path d="M0 0 C3.3 0.33 6.6 0.66 10 1 C9.67 1.66 9.34 2.32 9 3 C5.9375 3.625 5.9375 3.625 3 4 C2.01 2.68 1.02 1.36 0 0 Z " fill="#B7B7FD" transform="translate(123,424)"/>
<path d="M0 0 C3.7910119 1.44950455 7.3874638 3.15172566 11 5 C11 5.33 11 5.66 11 6 C4.62068966 5.50928382 4.62068966 5.50928382 1.5625 3 C0 1 0 1 0 0 Z " fill="#7D79FA" transform="translate(115,428)"/>
<path d="M0 0 C0.66 0.33 1.32 0.66 2 1 C1.75 2.875 1.75 2.875 1 5 C-1.0625 6.25 -1.0625 6.25 -3 7 C-3 3.48283697 -2.17554415 2.62878252 0 0 Z " fill="#528CD5" transform="translate(89,301)"/>
<path d="M0 0 C0.99 0.33 1.98 0.66 3 1 C0.41924598 3.58075402 -1.50967981 4.24052758 -5.0625 4.3125 C-9 4 -9 4 -12 2 C-11.30132812 2.02320313 -10.60265625 2.04640625 -9.8828125 2.0703125 C-8.51769531 2.09738281 -8.51769531 2.09738281 -7.125 2.125 C-6.22007812 2.14820313 -5.31515625 2.17140625 -4.3828125 2.1953125 C-1.81193006 2.24324836 -1.81193006 2.24324836 0 0 Z " fill="#8686FD" transform="translate(135,430)"/>
<path d="M0 0 C0 0.99 0 1.98 0 3 C0.33 3.99 0.66 4.98 1 6 C-0.32 6.99 -1.64 7.98 -3 9 C-3.75 6.75 -3.75 6.75 -4 4 C-2.0625 1.6875 -2.0625 1.6875 0 0 Z " fill="#477DC1" transform="translate(86,303)"/>
<path d="M0 0 C0.66 0.33 1.32 0.66 2 1 C1.34 2.65 0.68 4.3 0 6 C-1.98 5.34 -3.96 4.68 -6 4 C-4.03617993 2.49440461 -2.21736634 1.10868317 0 0 Z " fill="#1F1F1E" transform="translate(447,264)"/>
<path d="M0 0 C0.66 0 1.32 0 2 0 C1.45773019 3.79588866 -0.20127563 5.47211993 -3 8 C-3.99 7.67 -4.98 7.34 -6 7 C-5.34 7 -4.68 7 -4 7 C-3.71125 6.401875 -3.4225 5.80375 -3.125 5.1875 C-2 3 -2 3 0 0 Z " fill="#100C7B" transform="translate(150,425)"/>
<path d="M0 0 C0.99 0.495 0.99 0.495 2 1 C2 1.66 2 2.32 2 3 C2.639375 3.28875 3.27875 3.5775 3.9375 3.875 C6 5 6 5 7 7 C5.35 6.67 3.7 6.34 2 6 C1.34 4.02 0.68 2.04 0 0 Z " fill="#070527" transform="translate(108,430)"/>
<path d="M0 0 C3.7952131 1.49097658 5.61042731 3.75700849 8 7 C4.59679258 5.98823563 3.24274669 5.35156418 1.1875 2.375 C0.795625 1.59125 0.40375 0.8075 0 0 Z " fill="#695FF0" transform="translate(138,398)"/>
</svg>
